Coordinates
version=1
nRows=21
nColumns=12
inDegrees=yes

Units are S.I. units (second, meters, Newtons, ...)
Angles are in degrees

endheader
time	SC_y	SC_z	SC_x	AC_y	AC_z	AC_x	GH_y	GH_z	GH_yy	EL_x	PS_y
       0.0              -33.85          7.071          64.37          49.52          8.589         -15.03         -37.44          47.93         -14.45          6.879          15.77
   0.03489              -33.85          7.072          64.36          49.52          8.586         -15.03         -37.45          47.92         -14.45          6.895          15.78
   0.06977              -33.86          7.073          64.35          49.53          8.584         -15.03         -37.46          47.91         -14.44          6.912           15.8
    0.1047              -33.86          7.075          64.35          49.53          8.581         -15.03         -37.48           47.9         -14.43           6.93          15.81
    0.1395              -33.86          7.076          64.34          49.53          8.578         -15.02         -37.49          47.89         -14.42           6.95          15.83
    0.1744              -33.87          7.078          64.33          49.54          8.575         -15.02         -37.51          47.88         -14.41           6.97          15.85
    0.2093              -33.87          7.079          64.32          49.54          8.571         -15.02         -37.52          47.87          -14.4          6.992          15.87
    0.2442              -33.88          7.081          64.31          49.54          8.567         -15.01         -37.54          47.85         -14.39          7.016          15.89
    0.2791              -33.88          7.083           64.3          49.55          8.564         -15.01         -37.56          47.84         -14.38          7.041          15.91
     0.314              -33.88          7.085          64.29          49.55          8.559         -15.01         -37.58          47.82         -14.37          7.068          15.93
    0.3489              -33.89          7.087          64.28          49.56          8.555          -15.0         -37.61          47.81         -14.36          7.097          15.95
    0.3838               -33.9           7.09          64.27          49.56           8.55          -15.0         -37.63          47.79         -14.34          7.128          15.98
    0.4186               -33.9          7.092          64.25          49.57          8.545         -14.99         -37.66          47.77         -14.33          7.162          16.01
    0.4535              -33.91          7.095          64.24          49.58          8.539         -14.99         -37.68          47.75         -14.31          7.198          16.04
    0.4884              -33.91          7.098          64.22          49.58          8.533         -14.98         -37.72          47.73         -14.29          7.238          16.07
    0.5233              -33.92          7.101          64.21          49.59          8.527         -14.97         -37.75          47.71         -14.27           7.28          16.11
    0.5582              -33.93          7.105          64.19           49.6          8.519         -14.97         -37.78          47.68         -14.25          7.327          16.15
    0.5931              -33.94          7.109          64.17          49.61          8.512         -14.96         -37.82          47.65         -14.23          7.377          16.19
     0.628              -33.95          7.113          64.15          49.62          8.503         -14.95         -37.87          47.62          -14.2          7.432          16.24
    0.6628              -33.96          7.118          64.12          49.63          8.494         -14.94         -37.91          47.59         -14.18          7.493          16.29
    0.6977              -33.97          7.123           64.1          49.64          8.483         -14.93         -37.97          47.56         -14.15          7.559          16.35
